<?xml version="1.0" standalone="no"?><!DOCTYPE svg PUBLIC "-//W3C//DTD SVG 1.1//EN" "http://www.w3.org/Graphics/SVG/1.1/DTD/svg11.dtd"><svg t="1570514748959" class="icon" viewBox="0 0 1024 1024" version="1.1" xmlns="http://www.w3.org/2000/svg" p-id="3907" xmlns:xlink="http://www.w3.org/1999/xlink" width="200" height="200"><defs><style type="text/css"></style></defs><path d="M512 116.74942207C294.03579902 116.74942207 116.68994141 294.09450722 116.68994141 512.05948066c0 217.9441166 177.34508515 395.31005859 395.31005859 395.3100586 217.96420098 0 395.31005859-177.36594199 395.31005859-395.3100586C907.31005859 294.07519531 729.96497345 116.74942207 512 116.74942207z m0 748.75576973c-194.90655899 0-353.44571113-158.55923652-353.44571113-353.4464836C158.55428887 317.15369415 317.09344101 158.61454201 512 158.61454201c194.90655899 0 353.44571113 158.53915215 353.44571113 353.44571113 0 194.88647461-158.53915215 353.44571113-353.44571113 353.44571114z m212.11114883-516.23657226L444.44695663 628.93203926 299.88885117 484.37393379a21.63396835 21.63396835 0 0 0-30.5923748 30.5923748l159.86394882 159.86394883c8.44470977 8.44470977 22.14920998 8.44470977 30.59314727 0l294.94995117-294.97003556a21.63396835 21.63396835 0 1 0-30.5923748-30.59160232z" p-id="3908" fill="#1296db"></path></svg>